<?xml version="1.0" ?><svg xmlns="http://www.w3.org/2000/svg" width="184.17793mm" height="205.07463mm" viewBox="0 0 184.17793 205.07463">
    <path d="m 5818.3393,4063.8574 c -15.9734,-0.2484 -32.2064,1.4998 -46.5488,5.9219 -38.2456,11.7921 -76.4943,46.5319 -88.2988,74.1523 0,0 -23.3716,-10.1987 -42.9668,-12.4296 -19.5953,-2.231 -38.6006,6.1631 -51.1133,31.0214 -11.0239,21.9011 -2.7304,49.7092 -0.5098,56.3379 -9.3523,6.4678 -19.9482,15.8093 -24.3125,26.545 -0.9796,2.4096 -5.23,13.1753 -7.207,18.0683 -7.0437,11.9175 -13.2701,23.8056 -15.0352,30.0195 -0.8677,3.0547 -3.8825,13.8947 -7.2558,26.1817 -10.5421,27.2038 -20.5746,54.0434 -23.375,65.082 -6.0913,24.011 -19.4922,87.0534 -10.7207,103.8281 5.3556,10.2422 19.873,21.4015 32.5586,29.8672 0.9866,0.731 1.9854,1.3832 2.9941,1.9903 6.8403,4.427 13.0365,8.1653 15.9805,9.6953 4.7248,2.4555 8.0901,1.8814 10.2832,0.873 15.0901,6.1124 30.3472,12.166 41.8633,10.8614 16.6201,-1.8828 32.3935,-9.4619 32.8808,-9.6973 8.5446,11.8353 25.3322,22.3712 50.4219,30.4316 33.7607,10.1986 80.9794,-7.7572 98.332,-26.3476 17.3525,-18.5913 9.4422,-39.9449 4.4844,-68.9473 -4.9571,-29.0023 6.9648,-95.7187 6.9648,-95.7187 l 12.3946,-33.5704 c 0,0 21.3666,-2.7607 33.289,-6.6914 11.9225,-3.9308 8.3809,-26.8789 8.3809,-26.8789 l 31.7109,-21.084 c 1.0335,-0.093 1.9237,-0.236 2.5801,-0.455 12.114,-4.0423 30.4889,-28.6639 38.9277,-42.5059 8.439,-13.842 19.4644,-57.2055 13.2032,-65.5351 -2.2953,-3.0537 -10.4657,-7.2105 -20.6524,-11.4864 9.335,2.7588 16.7442,4.9785 16.7442,4.9785 0,0 5.3107,-3.1874 2.5957,-19.5468 -2.7151,-16.3603 -26.5607,-56.837 -50.877,-70.2227 -15.1982,-8.3661 -41.0953,-14.3243 -67.7168,-14.7383 z m -15.0312,69.9825 c 3.4481,-0.3581 15.8858,2.4514 31.1426,6.3281 -20.2059,-2.2493 -41.4356,-3.7578 -41.4356,-3.7578 -9.3708,2.3868 -19.9453,10.4982 -27.3301,18.2148 0.051,-0.1437 0.156,-0.3549 0.2032,-0.4941 4.6036,-13.5982 25.1433,-19.0162 37.4199,-20.291 z m -138.7657,27.6171 c 1.414,0.01 2.527,0.1489 3.25,0.4278 5.0763,1.9578 4.6228,30.5287 4.4317,37.8281 -1.4081,0.1736 -32.0875,3.978 -52.3457,7.2539 -0.4393,-8.6781 -1.1017,-18.9967 0.5781,-29.9961 9.5018,-9.2956 34.1881,-15.582 44.0859,-15.5137 z m 85.6543,26.4922 c -3.3819,12.7952 -6.5625,27.9157 -6.7382,37.6778 -0.3626,-1.3149 -0.8149,-2.6519 -1.0625,-3.9317 -1.7338,-8.9589 2.4647,-21.5376 7.8007,-33.7461 z m 0.8028,54.2012 c 11.1144,10.6578 31.5859,21.2635 36.4355,23.4922 2.8699,1.3188 20.7122,5.7298 40.4707,9.8437 -11.8722,-1.5103 -23.5475,-3.1656 -33.0976,-5.0273 -21.3265,-4.1574 -35.4635,-15.6115 -43.8086,-28.3086 z m 227.8437,27.7402 c -0.364,0 -0.7197,0.01 -1.0664,0.037 -11.0962,0.9562 -46.5092,18.2714 -52.7656,28.5762 -6.2557,10.3049 -3.895,37.9265 -2.4785,49.1875 0,0 16.8802,7.9683 25.8515,10.1992 8.9714,2.231 34.8239,4.0358 54.0645,2.8672 19.2412,-1.1686 25.4973,-46.3181 21.8379,-53.1172 -3.6594,-6.7991 -18.5324,-9.7742 -16.7617,-15.6172 1.7154,-5.6604 -17.3975,-21.987 -28.6817,-22.1328 z m -238.7363,178.5293 c -0.016,0.01 -0.029,0.015 -0.045,0.024 0.015,-0.01 0.03,-0.016 0.045,-0.024 z m -16.1465,0.1289 c 0,0.03 0,0.061 0,0.09 0,-0.03 0,-0.06 0,-0.09 z m 9.6563,2.5918 c -0.018,0.01 -0.033,0.01 -0.051,0.016 0.017,-0.01 0.034,-0.01 0.051,-0.016 z m -8.1309,1.0313 c 0,0 0.01,0 0.012,0 0,0 -0.01,0 -0.012,0 z m 160.6055,131.6601 c -11.8991,0.1263 -17.9228,8.5564 -27.3145,18.5704 -12.5223,13.352 -52.6742,47.4056 -65.4687,56.3476 -12.7946,8.942 -29.5378,21.5597 -29.6739,36.1367 0,0 6.2609,13.7202 29.2637,24.7442 23.0026,11.0247 57.8477,16.0459 81.9395,-0.1231 24.0917,-16.17 57.9834,-67.7385 59.0722,-86.4804 1.0889,-18.7417 -11.1607,-38.0975 -33.6191,-46.3047 -5.6146,-2.0518 -10.2328,-2.9328 -14.1992,-2.8907 z m -305.5567,7.752 c -6.8468,0.025 -14.2791,1.4782 -23.1093,4.3262 -23.5473,7.5947 -68.8733,60.0225 -74.1817,86.6035 -5.3084,26.5817 22.5959,41.5274 37.9766,49.8574 9.8,2.572 35.7968,-0.9798 44.916,-19.9668 9.1195,-18.987 43.9639,-44.0981 62.6113,-63.3301 18.6473,-19.232 3.9479,-32.7069 -15.1074,-45.5683 -11.9099,-8.0389 -21.6942,-11.9638 -33.1055,-11.9219 z" fill="#FFFFFF" paint-order="markers stroke fill" transform="translate(341.26689,257.32964) matrix(0.26458333,0,0,0.26458333,-1790.3829,-1320.008)"/>
    <path d="m 6042.9604,4016.4512 c -2.1343,-0.4382 -3.9167,4.0966 -4.6406,13.0547 -0.7931,9.8108 -1.5429,10.6248 -13.4121,14.58 -14.2217,4.7395 -15.5582,9.4922 -2.6699,9.4922 8.5732,0 11.0205,2.1771 5.9629,5.3028 -1.4582,0.9013 -2.6504,4.0822 -2.6504,7.0703 0,4.4351 1.1871,5.1352 6.4648,3.8105 3.5558,-0.8923 7.243,-0.3626 8.1953,1.1778 3.3438,5.4109 7.8873,0.6757 9.1992,-9.5899 1.3188,-10.3187 1.397,-10.3816 15.836,-12.4492 16.2664,-2.3291 20.1255,-4.8251 17.6054,-11.3926 -1.3624,-3.5501 -3.9485,-4.1996 -12.2812,-3.082 -11.5359,1.5473 -11.8354,1.3098 -7.8125,-6.207 3.4417,-6.4312 -1.5294,-7.0485 -8.1934,-1.0176 -4.1765,3.7796 -4.7839,3.4194 -7.5351,-4.4727 -1.3813,-3.9621 -2.7878,-6.0144 -4.0684,-6.2773 z m -486.5,26.6152 c -2.6701,-1.6504 -8.0639,14.5345 -8.0879,24.2735 -0.023,8.9475 -7.0497,-1.8502 -13.3593,-9.9024 -6.2961,-8.0349 -9.6825,-1.8049 -5.1563,9.0547 l 5.1133,12.2715 h -13.1895 c -15.5694,0 -18.2751,6.0693 -5.164,11.582 7.9964,3.3622 8.0049,3.3905 2.6504,8.2363 -6.4657,5.8514 -7.099,14.6446 -1.0547,14.6446 2.375,0 9.2351,-4.4517 15.2441,-9.8926 10.5582,-9.5598 11.666,-12.678 11.666,3.3144 0.4076,7.2636 1.3036,14.7963 1.9903,16.7403 2.3564,6.6703 7.8727,1.3543 8.6953,-8.3789 0.4525,-5.3551 1.3513,-9.7364 1.9961,-9.7364 0.6448,0 5.4743,4.7618 10.7324,10.5821 5.2582,5.8202 10.6246,9.9259 11.9238,9.123 3.9107,-2.417 2.7977,-4.9851 -7.2324,-16.7031 -5.2767,-6.1645 -9.1531,-11.5069 -8.6152,-11.8711 0.5378,-0.364 4.2577,-2.0709 8.2675,-3.793 9.4466,-4.0571 9.235,-7.9833 -0.6523,-12.1406 l -7.9414,-3.3398 9.2676,-8.9825 c 15.2032,-14.7353 10.9446,-21.8474 -5.5489,-9.2675 -4.7791,3.6454 -9.5186,6.6269 -10.5312,6.6269 -1.0127,0 -1.0885,-4.7009 -0.1699,-10.4453 0.9186,-5.7444 0.5387,-11.1418 -0.8438,-11.9961 z m 258.3301,9.1856 c -30.7978,0 -47.074,3.6498 -72.9043,16.3457 -26.2763,12.9146 -45.0651,30.759 -58.0625,55.1445 l -8.498,15.9434 -7.8047,-5.7696 c -10.7762,-7.9671 -35.6813,-9.6622 -51.7559,-3.5234 -25.7723,9.8427 -38.3603,28.1134 -40.2266,58.3887 -0.6291,10.2065 -0.025,21.4874 1.3418,25.0683 2.1192,5.5495 1.1349,7.8972 -6.6679,15.9063 -16.1212,16.5469 -32.3023,54.7105 -54.9629,129.6328 -16.0545,53.0813 -22.4405,82.5662 -22.4805,103.7773 -0.059,32.5437 17.4702,56.2271 54.0078,72.9668 31.6884,14.5181 57.6797,17.9125 79.7598,10.416 l 12.0859,-4.1035 6.9082,8.211 c 7.9379,9.4335 27.2091,19.9282 41.5215,22.6132 5.4034,1.0138 10.4479,2.853 11.211,4.0879 2.8893,4.6749 -14.1458,32.9253 -22.9532,38.0645 -11.6697,6.8093 -33.5111,7.3054 -37.1308,0.8437 -4.5411,-8.1063 -20.9222,-22.6043 -31.0215,-27.455 -14.0953,-6.7701 -37.8905,-7.9641 -51.9219,-2.6055 -44.6393,17.0481 -84.7224,77.3518 -77.3906,116.4336 2.0643,11.0034 17.4935,29.4017 30.3555,36.1972 12.8634,6.7962 34.6334,6.9163 47.6738,0.2637 6.8925,-3.5163 12.3231,-9.426 17.6465,-19.207 9.6716,-17.77 61.6439,-73.0862 69.0566,-73.5 11.9424,-0.6667 37.5773,-8.8638 46.875,-14.9883 11.3855,-7.4999 17.1659,-17.3135 23.3535,-39.6602 4.1667,-15.0483 4.8809,-15.9542 13.2617,-16.7753 6.7452,-0.6607 10.0269,0.6043 13.7579,5.3027 9.9231,12.4956 18.4458,32.4696 25.7773,60.4141 l 7.5195,28.6621 -5.6758,5.6757 c -9.019,9.0191 -7.9762,29.2941 2.045,39.754 11.4942,11.9973 45.2534,24.0996 67.2226,24.0996 24.3003,0 35.6324,-6.2334 62.1055,-34.1641 24.6264,-25.9823 40.8857,-51.4016 43.3379,-67.7539 4.3677,-29.1246 -23.9692,-57.1445 -57.7891,-57.1445 -17.2602,0 -25.6138,5.3204 -48.9883,31.207 -27.6511,30.6234 -45.7754,41.6141 -45.7754,27.7578 0,-9.529 -13.5166,-47.7791 -21.1035,-59.7207 -4.4324,-6.9766 -8.0586,-13.2088 -8.0586,-13.8496 0,-0.641 3.2813,-2.8661 7.2911,-4.9453 20.0516,-10.3973 43.08,-43.8025 43.08,-62.4922 0,-5.7989 -2.967,-19.834 -6.5937,-31.1895 -3.8567,-12.0766 -6.6099,-27.0314 -6.6289,-36.0293 -0.036,-16.3517 7.0299,-52.2207 10.2871,-52.2207 1.0685,0 5.3265,3.5322 9.4609,7.8477 12.9183,13.4836 29.2258,19.4734 49.1367,18.0488 21.8759,-1.5652 31.7642,-6.5963 52.1485,-26.541 11.4894,-11.2414 17.6604,-15.4929 20.7617,-14.3027 8.3883,3.2188 55.2232,12.2871 63.3887,12.2871 10.7861,-0.013 24.882,-8.8201 28.2363,-17.6426 4.4555,-11.7191 1.7041,-50.124 -4.0469,-56.4785 -2.688,-2.9704 -6.4921,-5.4004 -8.4531,-5.4004 -2.0146,0 -3.5664,-2.8199 -3.5664,-6.4805 0,-9.457 -10.3686,-19.9437 -22.5332,-22.789 -15.6432,-3.6589 -31.098,-0.4684 -46.8281,9.666 -7.6821,4.9493 -15.3153,8.998 -16.961,8.998 -1.646,0 -5.1492,2.3843 -7.7851,5.2969 -3.7793,4.176 -4.9727,10.762 -5.6465,31.1504 -0.8265,25.0087 3.7094,22.949 -14.9922,39.5059 -21.7727,21.026 -39.8253,24.4338 -61.5488,11.6152 -23.2789,-13.7362 -25.8549,-16.5359 -22.7422,-24.7227 2.4186,-6.3615 4.1074,-7.1718 14.9277,-7.1718 9.9486,0 13.6277,-1.4304 19.9473,-7.75 4.9634,-4.9633 7.75,-10.4844 7.75,-15.3555 0,-6.6737 1.868,-8.469 15.2441,-14.6582 29.483,-13.6415 49.8519,-37.52 66.1621,-77.5586 10.3296,-25.3569 11.0497,-40.5403 3.4258,-72.3418 -5.9486,-24.8131 -9.802,-33.2228 -24.0781,-52.5527 -26.1879,-35.4587 -54.6766,-48.75 -104.4961,-48.75 z m -4.4941,21.2031 c 22.7367,0.065 46.1093,3.8551 58.9628,10.6172 17.5714,9.244 42.6013,37.7524 48.9532,55.7558 6.5358,18.5241 5.8383,18.8836 -17.2305,8.8868 -31.695,-13.7353 -58.6921,-20.1452 -86.5684,-20.5528 -20.5172,-0.2998 -25.1024,0.4286 -29.8867,4.752 -4.3323,3.9151 -6.3787,4.3789 -8.7695,1.9883 -3.8852,-3.8854 -11.7725,-4.054 -14.0918,-0.3008 -0.958,1.5498 0.1624,4.924 2.4902,7.4961 3.9101,4.3208 3.7127,5.1651 -2.5937,11.0898 -4.1255,3.8756 -9.2679,6.0922 -12.9981,5.6035 -7.5957,-0.9954 -10.7222,3.2952 -5.7715,7.9199 3.1201,2.9146 2.8762,5.2363 -1.6132,15.4024 -3.8836,8.7942 -5.37,18.3013 -5.6035,35.8301 -0.3945,29.6158 3.4904,36.1849 29.4218,49.7539 20.638,10.799 62.7628,23.0508 80.2793,23.3496 l 11.9297,0.2051 -9.2773,3.5722 c -12.0787,4.6517 -40.1045,4.6076 -57.541,-0.09 -42.748,-11.516 -93.6632,-48.2923 -98.9708,-71.4883 -3.3255,-14.5341 -3.1486,-39.8944 0.4024,-57.5762 2.8561,-14.2211 3.2368,-14.707 11.2676,-14.3613 9.918,0.427 11.4298,-5.883 2.4785,-10.3457 -5.7678,-2.8755 -5.7786,-2.998 -0.9551,-10.9297 4.1183,-6.7709 6.1619,-7.832 13.1231,-6.8105 6.2273,0.9141 8.246,0.1953 8.246,-2.9356 0,-2.2801 -2.0889,-5.3155 -4.6406,-6.7461 -4.2346,-2.3742 -3.9868,-3.2833 2.8438,-10.4199 9.9946,-10.4421 29.2091,-20.6276 48.2832,-25.5957 10.776,-2.8068 24.188,-4.1091 37.8301,-4.0703 z m -71.8223,45.9394 c -0.7008,-0.02 -1.3066,0.1001 -1.7734,0.3887 -3.8461,2.3767 -3.4723,11.2648 0.5449,12.9453 5.2812,2.2092 13.4111,0.6639 14.539,-2.7636 1.1382,-3.4581 -8.4049,-10.4285 -13.3105,-10.5704 z m -95.7324,20.543 c 7.3854,0.1413 14.2274,2.3047 19.4082,6.6641 10.7256,9.0251 10.3831,12.3519 -1.0508,10.207 -13.9181,-2.6111 -33.994,3.2252 -42.8359,12.4531 -6.4454,6.7266 -7.6375,10.2066 -7.8204,22.8164 -0.1754,12.0895 -1.17,15.2515 -5.3027,16.8711 -9.231,3.6179 -11.4554,2.4667 -13.2012,-6.8398 -2.8367,-15.1208 3.5939,-35.8405 14.5371,-46.8379 10.1398,-10.1898 23.9567,-15.5694 36.2657,-15.334 z m 157.5976,0.2852 c 4.4285,0.074 9.8706,0.7084 17.0039,1.6093 29.6075,3.7397 62.7581,13.1363 89.7598,25.4414 17.1729,7.8261 21.3259,3.243 20.3574,21.4922 0,15.7515 -13.232,49.4056 -26.1504,66.5098 -11.5105,15.2405 -18.5956,14.8861 -38.9043,13.4805 -18.5434,0.2815 -34.3796,-0.9741 -43.7636,-3.4688 -14.4409,-3.839 -14.707,-4.0857 -14.8184,-13.6972 -0.063,-5.3831 -2.0417,-14.5584 -4.3984,-20.3907 -2.3567,-5.8323 -4.3394,-16.3076 -4.4024,-23.2793 -0.1401,-15.2688 -6.0503,-19.5598 -13.7851,-10.0078 -6.1674,7.6166 -6.6982,35.0534 -0.8946,46.1817 2.1782,4.1764 3.959,7.992 3.959,8.4785 0,3.1413 -17.7477,-6.235 -25.3203,-13.377 -8.2507,-7.7811 -9.1426,-10.0317 -9.1426,-23.0801 0,-19.3444 5.6714,-34.7793 19.6153,-53.3769 13.4255,-17.9059 17.5994,-22.7384 30.8847,-22.5156 z m -76.4726,8.0625 c -0.6395,0.019 -1.2557,0.1311 -1.8301,0.3515 -5.3605,2.0571 -5.0957,8.7883 0.4687,11.9024 5.376,3.0085 11.4278,1.1391 11.4278,-3.5293 0,-4.3738 -5.5903,-8.8542 -10.0664,-8.7246 z m -70.418,23.4589 c 1.6602,-0.029 3.3267,0.045 4.9766,0.2325 7.4011,0.8411 7.9564,1.7028 8.7129,13.4922 l 0.8085,12.5918 h -10.3789 c -5.7086,0 -15.9149,0.7583 -22.6796,1.6855 -13.9528,1.9125 -15.5507,-0.9658 -8.3086,-14.9707 3.8865,-7.5154 15.2474,-12.8257 26.8691,-13.0313 z m 250.9609,10.4532 c -2.9296,0.8141 -4.855,6.6475 -5.2714,16.9355 -0.4257,10.5179 -3.2108,20.8826 -8.9727,33.3828 -4.5958,9.9711 -7.5595,19.4199 -6.584,20.9981 5.4194,8.7686 16.7068,-2.5506 25.2129,-25.2852 6.2085,-16.5935 7.0224,-34.9022 1.8652,-41.9551 -2.373,-3.2453 -4.4922,-4.5646 -6.25,-4.0761 z m -79.1875,12.1328 c -1.6786,0.219 -3.3912,1.0454 -4.9453,2.5996 -5.0105,5.0104 -5.2965,9.5397 -0.8789,13.957 5.5653,5.5654 13.8571,2.5581 14.7715,-5.3574 0.8139,-7.0449 -3.9114,-11.8563 -8.9473,-11.1992 z m 31.8086,6.7793 c -6.1844,1.1746 -8.7061,15.0983 -3.3496,18.4941 4.3126,2.7339 5.3984,2.7681 9.0215,0.2871 8.6024,-5.8904 4.1462,-20.6459 -5.6719,-18.7812 z m 278.6211,3.2754 c -0.584,-0.021 -1.4686,1.0143 -2.8183,2.7988 -2.1406,2.8304 -3.8926,7.9011 -3.8926,11.2676 0,7.034 -3.1827,7.8923 -7.9531,2.1445 -1.8151,-2.1871 -5.6075,-3.9766 -8.4278,-3.9766 -4.7694,0 -4.8406,0.4105 -1.0019,5.8907 5.7642,8.2297 5.2061,10.0067 -3.1621,10.0547 -4.0098,0.022 -8.9572,1.096 -10.9922,2.3847 -5.1032,3.2312 -1.6344,10.8301 4.9433,10.8301 6.9877,0 6.7949,1.6285 -1.4765,12.4727 -6.7589,8.8617 -7.0508,16.6894 -0.6231,16.6894 1.8071,0 7.9713,-4.4736 13.6992,-9.9414 9.4209,-8.9935 10.2659,-9.3307 8.8633,-3.5469 -0.8527,3.5163 -0.3373,8.6587 1.1446,11.4278 3.6857,6.8867 8.4045,4.642 11.2734,-5.3614 l 2.3887,-8.33 7.6074,5.416 c 14.1891,10.1037 23.8267,2.0609 11.3672,-9.4864 l -7.2168,-6.6875 h 9.3418 c 11.3287,0 17.6164,-5.9343 12.6406,-11.9296 -1.8151,-2.1871 -6.0667,-3.9766 -9.4473,-3.9766 -7.8092,0 -10.204,-3.7454 -5.1035,-7.9785 4.1294,-3.4273 5.4224,-10.5801 1.9121,-10.5801 -1.1197,0 -6.4879,3.025 -11.9297,6.7227 l -9.8945,6.7246 -0.084,-12.6895 c -0.049,-7.333 -0.1849,-10.304 -1.1582,-10.3398 z m -467.7597,5.0312 c 2.1153,0.2188 2.416,1.2424 2.416,2.9258 0,2.2536 2.0096,8.3123 4.4668,13.4648 4.1895,8.7853 4.1895,9.9531 0,18.7383 -5.9534,12.4844 -5.6613,16.7568 2.1465,31.4414 6.0895,11.453 6.2952,12.927 2.5898,18.5821 -3.1818,4.8561 -7.2885,6.4822 -19.6074,7.7695 -28.4136,2.97 -69.4623,20.827 -88.586,38.5371 -20.5801,19.0586 -19.487,37.3648 4.0079,67.1543 l 7.7402,9.8145 -6.9121,10.4453 c -4.4446,6.7165 -7.4551,15.714 -8.4356,25.2129 -1.3945,13.5122 -0.8724,15.5519 6.127,23.9472 4.2081,5.0475 10.9264,14.0475 14.9297,20 5.1826,7.706 12.2456,13.2716 24.5234,19.3262 9.4839,4.6767 17.2422,9.4406 17.2422,10.5859 0,2.4942 -39.8733,2.2312 -53.0234,-0.3496 -26.9659,-5.2925 -55.2757,-30.0228 -62.3926,-54.5039 -6.1736,-21.2368 -4.5778,-23.5547 11.5332,-16.748 l 13.0566,5.5156 1.7129,18.4316 c 1.8493,19.8977 5.4484,29.4862 10.4238,27.7676 1.7237,-0.5955 2.8601,-4.5454 2.5235,-8.7773 -0.3367,-4.2319 -1.3941,-18.7295 -2.3496,-32.2168 -1.5703,-22.1659 -4.0785,-29.9154 -6.92,-21.3906 -0.7786,2.3355 -4.7052,2.0938 -15.4648,-0.9512 -12.5908,-3.5632 -14.3298,-4.8653 -13.7012,-10.2578 0.396,-3.3967 1.2673,-6.7226 1.9356,-7.3907 0.6682,-0.6683 8.0153,1.3879 16.3262,4.5684 13.8271,5.2912 15.4638,5.422 19.2734,1.5508 3.7863,-3.8475 3.7122,-4.5658 -0.8242,-7.9297 -2.7435,-2.0345 -11.3953,-5.0288 -19.2246,-6.6543 -13.6131,-2.826 -14.1626,-3.2654 -12.5645,-10.0566 2.6388,-11.2156 4.5736,-11.664 17.9785,-4.1719 11.3381,6.337 13.0187,6.6375 16.6797,2.9765 5.6309,-5.6309 2.4317,-9.4495 -14.0098,-16.7207 l -14.125,-6.2461 4.0118,-14.0039 c 2.2067,-7.7019 6.9805,-23.1162 10.6074,-34.2539 l 6.5937,-20.25 11.1465,3.2969 c 13.0179,3.8507 17.7774,2.8263 17.7774,-3.8262 0,-5.6674 -5.0735,-8.0156 -17.3125,-8.0156 -8.8902,0 -8.9131,-0.032 -6.0489,-8.6152 4.0479,-12.1312 5.2024,-12.869 15.5137,-9.9082 5.0445,1.4484 15.7345,3.1697 23.7539,3.8242 17.7754,1.4507 13.0941,3.964 22.4922,-12.0586 10.1367,-16.9758 14.9458,-21.2845 35.168,-31.4941 9.113,-4.6009 16.5683,-9.2951 16.5683,-10.4336 0,-1.1385 -2.3883,-4.2323 -5.3086,-6.875 -4.6986,-4.2521 -6.571,-4.4277 -16.2773,-1.5196 -9.5613,2.8648 -12.1119,2.67 -19.877,-1.5117 -4.8992,-2.6383 -8.9062,-5.5893 -8.9062,-6.5586 0,-0.9694 8.0524,-3.6289 17.8945,-5.9082 20.6182,-4.775 29.1853,-6.6439 32.711,-6.2793 z m -65.9454,18.2051 c 3.0526,0.051 6.3594,2.3381 12.5879,7.6621 10.5216,8.9935 6.6926,9.8065 -10.4316,2.2149 -9.2104,-4.0836 -10.9855,-5.8091 -7.9531,-7.7266 2.225,-1.4071 3.9653,-2.1809 5.7968,-2.1504 z m 255.9844,0.4043 c -6.4555,0.093 -10.0019,2.6264 -10.0019,7.3574 0,3.2988 2.865,5.7715 8.6152,7.4317 12.1707,3.5142 14.2035,3.4351 17.6152,-0.6758 4.6932,-5.6548 0.784,-11.5796 -8.8281,-13.3828 -2.7743,-0.5205 -5.2486,-0.7615 -7.4004,-0.7305 z m -274.1777,12.6641 c 2.3324,-0.1808 4.832,1.1258 7.1719,3.9453 1.8973,2.286 7.7087,6.4074 12.916,9.1601 6.7048,3.5445 7.9209,4.9791 4.166,4.9141 -2.9161,-0.051 -6.4949,-0.531 -7.9531,-1.0664 -1.4581,-0.5355 -7.7358,-2.2811 -13.9512,-3.8789 -10.0938,-2.5947 -11.0046,-3.4593 -8.5234,-8.0957 1.6755,-3.1308 3.8414,-4.7977 6.1738,-4.9785 z m 101.7129,11.08 c 1.7878,-0.033 5.6723,2.9098 10.957,8.8379 13.0068,14.5904 24.2175,22.519 49.4395,34.9707 36.6152,18.0763 61.7828,23.9182 84.3144,19.5684 12.0138,-2.3192 12.6898,-2.1485 11.9297,3.0117 v 0 c -1.9212,13.0434 -40.0514,10.0893 -77.9805,-6.0411 -41.2553,-17.5449 -69.1135,-36.1125 -77.0351,-51.3417 -3.1041,-5.9684 -3.4128,-8.9752 -1.625,-9.0079 z m -113.625,9.9161 c 4.5985,0 32.1894,13.6677 32.1894,15.9453 0,1.2652 -0.8947,2.7435 -1.9883,3.2851 -2.6333,1.3039 -35.3518,-2.6644 -37.1992,-4.5117 -1.9922,-1.992 4.0588,-14.7187 6.9981,-14.7187 z m 403.8418,19.2871 c 15.8266,-0.3883 24.4354,8.9151 16.1738,19.9804 -6.9303,9.2822 -9.379,9.5931 -16.4297,2.0879 -3.3408,-3.5558 -9.5546,-7.906 -13.8086,-9.6679 -9.5492,-3.9555 -6.5016,-9.1089 6.8692,-11.6172 2.5274,-0.4742 4.9343,-0.7278 7.1953,-0.7832 z m -38.4629,18.6679 c 2.7044,0.09 6.0963,1.0476 10.0215,2.9102 11.769,5.5845 17.334,11.2514 17.334,17.6484 0,6.5128 -0.8833,6.4227 -19.2208,-1.9472 -10.7164,-4.8916 -15.2441,-8.4445 -15.2441,-11.9629 0,-4.5321 2.602,-6.7978 7.1094,-6.6485 z m -240.3555,1.4805 c 3.7162,0.3823 10.207,3.0988 19.666,8.2168 21.573,11.6726 64.7601,29.2105 72.0782,29.2695 10.1923,0.083 12.2217,3.7423 7.0839,12.7676 -5.5359,9.7244 -4.1129,9.5802 -43.2519,4.418 -16.6093,-2.1906 -32.0439,-3.3979 -34.3008,-2.6817 -6.5979,2.0943 -10.1009,9.898 -17.4414,38.8555 -8.8149,34.7749 -9.0552,58.201 -0.8145,79.6445 4.9865,12.9746 28.6671,16.355 59.8243,8.5411 17.7854,-4.4603 24.5937,-3.7348 24.5937,2.621 0,6.0153 -40.5684,20.6199 -61.6367,22.1895 -18.3442,1.3663 -21.7875,3.653 -12.7676,8.4805 10.8231,5.7922 39.4981,1.8793 64.8711,-8.8535 5.6917,-2.4076 10.7128,-4.0119 11.1602,-3.5645 2.1152,2.115 -2.6289,12.3287 -6.3985,13.7754 -10.3971,3.9896 -55.7356,11.3453 -62.2519,10.0996 -9.6799,-1.8505 -9.1811,3.0816 0.7265,7.1855 5.8371,2.4178 13.1904,2.6391 27.836,0.8379 10.947,-1.346 19.9043,-1.4325 19.9043,-0.1914 0,1.2411 -5.8871,4.985 -13.0821,8.3184 l -13.082,6.0605 -22.8476,-7.6425 c -12.5665,-4.2032 -25.0908,-6.9301 -27.8301,-6.0606 -2.7395,0.8695 -5.9557,4.4122 -7.1485,7.875 l -2.1699,6.2969 -10.6035,-5.0977 c -5.8323,-2.8035 -13.3503,-8.2137 -16.7051,-12.0234 -5.5513,-6.3039 -5.7301,-7.336 -1.9883,-11.4707 2.2612,-2.4989 4.1114,-6.4087 4.1114,-8.6875 0,-2.2787 2.9615,-4.8847 6.58,-5.793 7.1364,-1.7911 15.453,-14.9016 13.1915,-20.7949 -0.7701,-2.007 1.0284,-5.8458 3.996,-8.5313 6.7355,-6.0955 6.9677,-17.7219 0.4727,-23.5996 -3.0729,-2.7809 -4.4747,-6.7919 -3.7324,-10.6757 1.747,-9.1382 -5.501,-21.03 -16.3945,-26.8965 -8.5428,-4.6005 -9.3809,-5.9896 -7.9122,-13.1211 3.3309,-16.174 17.3128,-55.1884 23.6582,-66.0156 6.0205,-10.2732 7.2791,-11.0745 15.8477,-10.0743 12.257,1.4311 15.1764,-5.0562 6.4531,-14.3418 -5.0932,-5.4215 -5.5487,-7.0554 -2.4941,-8.9433 0.6292,-0.3889 1.5601,-0.52 2.7988,-0.3926 z m 319.7168,5.6328 c 0.5576,0 1.0137,3.5788 1.0137,7.9531 0,8.7487 -7.0579,17.3407 -17.5098,21.3145 -8.6451,3.2875 -16.2095,3.2434 -18.2793,-0.1055 -2.495,-4.0373 1.0006,-7.9531 7.0977,-7.9531 3.0017,0 10.2283,-4.7711 16.0605,-10.6035 5.8323,-5.8323 11.0597,-10.6055 11.6172,-10.6055 z m -87.0293,16.7012 c 1.7277,0.436 4.8673,2.358 8.0488,5.0351 6.9575,5.8544 13.9307,9.3182 27.6368,13.7227 2.8039,0.9011 4.6386,4.1451 4.6386,8.2012 0,3.6909 -1.1924,6.7109 -2.6504,6.7109 -1.4581,0 -2.6503,-1.0367 -2.6503,-2.3027 0,-1.2657 -7.9036,-6.9235 -17.5625,-12.5723 -16.64,-9.7315 -22.1369,-15.2381 -18.668,-18.707 0.2119,-0.2119 0.6311,-0.2333 1.207,-0.088 z m -275.5351,2.1836 c 0.9175,-0.1139 1.5159,-0.078 1.7246,0.1308 0.5487,0.5489 -2.4915,8.1251 -6.7578,16.8379 -4.266,8.7126 -10.4589,25.6754 -13.7618,37.6934 l -6.0058,21.8516 -9.7246,0.02 c -5.3488,0.011 -11.5672,0.7278 -13.8184,1.5918 -2.9098,1.1166 -7.1857,-3.2163 -14.7969,-14.9922 -5.8876,-9.1094 -10.705,-18.2856 -10.705,-20.3906 0,-5.8145 15.2096,-18.7905 31.6699,-27.0196 13.6787,-6.8376 35.7527,-14.9256 42.1758,-15.7226 z m 70.082,37.7851 c 0.6301,-0.6303 14.4946,1.9846 30.8105,5.8106 32.5512,7.6329 36.8432,12.2153 13.4864,14.4004 -7.9011,0.7391 -14.6476,2.7841 -15.252,4.623 -1.2258,3.7284 9.3811,8.4665 20.0645,8.9629 3.915,0.182 0.865,1.244 -6.7774,2.3594 -26.5636,3.877 -29.8049,9.1957 -7.3144,12.0058 15.8792,1.9839 19.4906,7.4749 9.1582,13.9278 -12.0079,7.499 -11.2071,22.3103 1.3769,25.4687 11.3085,2.8383 7.5335,6.2671 -11.7207,10.6465 -21.1741,4.8159 -44.0916,5.4881 -46.6387,1.3672 -0.9593,-1.5522 -2.3398,-11.9914 -3.0683,-23.1973 -1.128,-17.3464 -0.1329,-24.4511 6.7012,-47.8027 4.415,-15.0852 8.5436,-27.9422 9.1738,-28.5723 z m 7.9648,15.3536 c -5.3774,0.7007 -7.5394,6.5392 -3.4062,11.5195 3.7493,4.5175 5.2059,4.7454 10.1758,1.5957 5.366,-3.4005 2.5173,-12.1127 -4.2774,-13.082 -0.8905,-0.1271 -1.724,-0.1334 -2.4922,-0.033 z m 3.2403,34.4609 c -1.6247,-0.058 -3.2519,-0.037 -4.7871,0.074 -16.6599,1.2089 -10.4691,-0.697 -11.8907,17.6934 -0.4244,9.8719 0.536,18.406 2.3125,20.5468 3.8861,4.6824 18.4707,4.7307 24.8282,0.082 3.4061,-2.4905 5.2659,-8.0579 6.1152,-18.3008 1.0805,-13.029 0.5657,-15.0706 -4.4883,-17.7754 -2.3556,-1.2605 -7.216,-2.1452 -12.0898,-2.3203 z m -113.9258,2.209 c 3.4691,0 0.5762,3.8705 -9.8203,13.1367 -8.1066,7.2253 -16.2432,16.7697 -18.0821,21.209 -1.8389,4.4392 -4.3089,8.0722 -5.4882,8.0722 -2.8254,0 1.5239,-14.9107 6.6171,-22.6836 5.5465,-8.4652 20.8353,-19.7343 26.7735,-19.7343 z m 12.7793,9.2304 c 1.2065,-0.1139 2.4805,0.048 3.9726,0.3946 10.3016,2.3911 18.2571,10.6589 14.1797,14.7363 -6.12,6.1202 -3.7068,15.014 5.3457,19.6953 8.286,4.2849 8.3715,4.4937 2.6524,6.6094 -4.5942,1.6996 -5.9082,4.2843 -5.9082,11.6328 0,11.5324 -4.7086,13.9385 -16.127,8.2422 -14.0895,-7.0286 -17.0656,-1.5093 -6.1699,11.4394 3.7747,4.4862 5.8619,8.1259 4.6387,8.0879 -5.2163,-0.1598 -29.0996,-14.005 -33.1328,-19.207 -4.1296,-5.3261 -4.0355,-6.6697 1.539,-22.0273 3.2654,-8.9959 10.4497,-21.8632 15.9649,-28.5938 6.4202,-7.8354 9.4254,-10.6679 13.0449,-11.0098 z m 99.9433,1.375 c 7.5654,0 8.0628,0.5889 7.2891,8.6153 -0.6085,6.3107 -2.277,8.8231 -6.2402,9.3906 -7.0897,1.0148 -9.17,-1.3668 -9.17,-10.4961 0,-6.6131 0.9712,-7.5098 8.1211,-7.5098 z m 259.1172,47.8184 c -1.0373,0.182 -2.1774,1.4973 -3.1738,4.0938 -0.8849,2.3061 -1.6094,7.7641 -1.6094,12.1289 0,7.0067 -0.8544,7.8795 -7.291,7.455 -12.1416,-0.8005 -16.5683,-0.052 -16.5683,2.7989 0,1.494 2.9646,3.8432 6.5878,5.2207 l 6.5879,2.5058 -6.7304,6.7305 c -3.7018,3.7018 -6.0011,7.9135 -5.1075,9.3594 2.3318,3.7732 7.2037,3.2471 13.9981,-1.5117 5.3596,-3.754 6.0614,-3.754 7.5019,0 0.8739,2.2774 3.2503,4.1406 5.2813,4.1406 3.514,0 4.1633,-1.4472 4.7598,-10.6055 0.1593,-2.4454 3.8203,-4.4858 9.5078,-5.3008 10.766,-1.5432 14.6649,-10.0478 5.6836,-12.3965 -4.4794,-1.1713 -5.1344,-2.8489 -3.8028,-9.7519 1.5702,-8.1398 1.4849,-8.2279 -3.6425,-3.6992 -7.2832,6.4326 -8.8125,5.8569 -8.8125,-3.3145 0,-5.3115 -1.4411,-8.1568 -3.17,-7.8535 z m -100.9804,123.1113 c 6.0355,0.3414 11.3632,1.4757 11.3632,3.1426 0,0.7084 -6.7606,7.4623 -15.0214,15.0098 -8.261,7.5476 -27.0502,25.6692 -41.7539,40.2695 -14.7039,14.6 -34.7504,32.1315 -44.5489,38.959 -11.8449,8.253 -15.1052,18.0242 -23.2441,5.5137 -2.9852,-3.7949 -4.8671,-8.8004 -4.1817,-11.1231 5.3174,-18.1945 9.245,-17.4817 28.0098,-25.6055 10.5873,-4.9001 21.8406,-14.2151 41.0899,-34.0097 14.5806,-14.9938 29.2858,-28.7358 32.6757,-30.5391 2.8326,-1.5066 9.5758,-1.9585 15.6114,-1.6172 z m -314.5098,4.1739 c 5.82,-0.4106 10.3892,0.1282 10.3437,1.8535 -0.029,1.0936 -6.105,5.5671 -13.5019,9.9414 -7.3969,4.3742 -17.923,12.7955 -23.3926,18.7129 -12.5571,13.5854 -31.0533,45.0988 -37.8535,64.4941 v 0 c -2.8702,8.1859 -5.5439,15.2189 -5.9414,15.6289 -0.3977,0.41 -2.7437,-2.3399 -5.2148,-6.1114 -6.5891,-10.0559 -4.6191,-23.1769 3.7734,-25.125 7.7575,-1.8006 10.1574,-10.773 4.2032,-15.7148 -3.572,-2.9652 -3.5658,-3.9942 0.051,-9.5137 3.3458,-5.1066 5.6385,-5.9329 13.1094,-4.7207 11.0648,1.7957 15.0076,-4.524 7.7949,-12.4941 -4.3895,-4.8514 -4.3963,-5.5175 -0.123,-12.0391 3.1514,-4.8099 5.87,-6.3462 8.9648,-5.0683 10.3815,4.2875 13.718,4.3245 15.3106,0.1738 0.91,-2.371 0.1825,-6.0854 -1.6172,-8.2539 -2.7418,-3.3037 -1.7296,-4.5856 6.2461,-7.918 4.9585,-2.0719 12.0296,-3.4332 17.8496,-3.8437 z m 338.2617,10.4707 c 7.7999,0 11.4434,19.2647 6.2344,32.9648 v 0 c -3.08,8.1002 -3.6805,8.0979 -17.2988,-0.033 -5.8325,-3.4824 -11.7959,-6.8016 -13.2539,-7.377 -3.3123,-1.3069 19.7623,-25.5566 24.3183,-25.5566 z m -303.4512,2.0527 c 0.859,0.068 1.5899,0.2842 2.1856,0.6523 2.0533,1.2691 3.1712,2.6713 2.4844,3.1153 -0.6868,0.4438 -3.6348,2.1217 -6.5508,3.7285 -6.3413,3.4945 -8.522,14.1285 -3.5449,17.2832 1.9504,1.2361 6.229,2.2681 9.5097,2.2891 8.8466,0.06 7.3004,3.9035 -5.3008,13.166 -16.7913,12.3421 -46.9822,42.6394 -51.5898,51.7715 -2.2221,4.4042 -6.4943,10.6901 -9.4941,13.9707 -3.563,3.8967 -8.5117,5.9648 -14.2715,5.9648 -8.1848,0 -8.815,-0.6166 -8.791,-8.6152 0.057,-18.9102 29.0264,-66.6854 51.1211,-84.3067 15.952,-12.7223 28.2297,-19.4975 34.2421,-19.0195 z m 271.4043,33.248 c 3.8861,0.4037 9.2274,3.8587 18.2989,11.1934 7.2307,5.8462 7.5537,6.7707 3.7148,10.6094 -3.8386,3.8385 -4.8739,3.6461 -11.8965,-2.1973 -4.2305,-3.5203 -10.5141,-7.8862 -13.9648,-9.7031 -5.7303,-3.0175 -5.9092,-3.6689 -2.0664,-7.5117 1.7762,-1.7762 3.5824,-2.6329 5.914,-2.3907 z m 192.7422,9.9454 c -1.9939,-0.3763 -3.416,2.3418 -3.416,7.7421 0,7.1995 -0.9735,8.0792 -10.6641,9.6289 -11.4075,1.824 -15.9307,5.632 -10.6015,8.9258 2.3299,1.4397 2.4279,2.5454 0.3398,3.836 -4.4159,2.7291 -3.5371,12.1054 1.1348,12.1054 2.2385,0 6.862,-1.8293 10.2734,-4.0644 5.7971,-3.7985 6.298,-3.6931 7.6836,1.6055 2.0381,7.793 8.1675,5.0494 9.7989,-4.3868 1.1144,-6.4467 2.7697,-7.8739 9.9414,-8.5664 9.1752,-0.8858 11.7098,-6.6879 4.1836,-9.5761 -3.3687,-1.2926 -3.6846,-2.4326 -1.3262,-4.7911 1.7019,-1.7018 3.0957,-5.3777 3.0957,-8.1699 0,-4.8799 -0.2734,-4.8997 -7.0117,-0.4844 -6.4177,4.2048 -7.2132,4.2305 -9.4102,0.3047 -1.4241,-2.5447 -2.8251,-3.8836 -4.0215,-4.1093 z m -207.2265,1.1718 11.5468,13.2422 11.545,13.2442 -5.5411,5.9648 c -3.0478,3.2806 -6.2289,5.9041 -7.0683,5.8281 -2.2461,-0.2006 -25.2649,-18.4964 -26.0899,-20.7363 -0.3877,-1.0528 2.9653,-5.4306 7.4512,-9.7285 z m -24.2481,23.9903 11.9629,11.7402 c 6.5799,6.4576 11.9629,12.6563 11.9629,13.7734 0,1.117 -3.5184,3.8517 -7.8203,6.0762 -10.4336,5.3954 -10.7432,5.3366 -23.5391,-4.498 l -11.1152,-8.543 9.2734,-9.2754 z m -27.5781,24.6582 c 3.3425,-0.032 6.1166,2.7723 9.3262,8.7695 2.0782,3.8827 1.6483,4.8154 -2.1348,4.6484 -2.6029,-0.1151 -6.5219,-0.8077 -8.709,-1.5371 -2.1871,-0.7294 -5.758,-1.9016 -7.9355,-2.6054 -3.0713,-0.993 -2.4862,-2.3899 2.6054,-6.2305 2.6319,-1.9852 4.8422,-3.0256 6.8477,-3.0449 z m -178.1758,30.1855 c -3.228,-0.3022 -6.1774,5.0904 -6.2246,12.1602 -0.022,3.4021 -0.9337,5.7513 -2.0273,5.2187 -1.0935,-0.5329 -5.2751,-2.6161 -9.2911,-4.6289 -8.7202,-4.3702 -12.2903,-2.1283 -6.2421,3.9199 3.9909,3.9914 3.8651,4.7038 -1.6719,9.4024 -5.7292,4.8616 -5.7826,5.2485 -1.1797,8.8203 4.0951,3.1777 4.3095,4.5454 1.4277,9.1601 -4.9274,7.89 -0.6126,10.1798 6.5332,3.4668 7.5402,-7.0836 9.7598,-7.2374 9.7598,-0.6738 0,2.7948 1.4919,5.6825 3.3144,6.418 5.407,2.1817 6.4826,1.9472 9.8946,-2.1641 2.5073,-3.0211 4.4845,-3.2633 8.6152,-1.0527 7.441,3.9824 11.3285,-2.4097 5.4297,-8.9277 -3.9664,-4.3828 -3.9241,-5.0109 0.5645,-8.293 5.6514,-4.1324 3.7717,-12.2695 -2.834,-12.2695 -2.6141,0 -3.7808,-1.465 -2.9317,-3.6778 0.9898,-2.5792 -0.1128,-3.2781 -3.6933,-2.3418 -4.0551,1.0604 -5.1035,-0.058 -5.1035,-5.4453 0,-3.7292 -1.3261,-7.5999 -2.9473,-8.6016 -0.4649,-0.2873 -0.9314,-0.447 -1.3926,-0.4902 z" transform="translate(341.26689,257.32964) matrix(0.26458333,0,0,0.26458333,-1790.3829,-1320.008)" fill="#000000"/>
</svg>